<svg id="visual" viewBox="0 0 900 600" width="900" height="600" xmlns="http://www.w3.org/2000/svg" xmlns:xlink="http://www.w3.org/1999/xlink" version="1.1"><rect x="0" y="0" width="900" height="600" fill="#000000"></rect><defs><linearGradient id="grad1_0" x1="33.3%" y1="0%" x2="100%" y2="100%"><stop offset="20%" stop-color="#09efe8" stop-opacity="1"></stop><stop offset="80%" stop-color="#09efe8" stop-opacity="1"></stop></linearGradient></defs><defs><linearGradient id="grad1_1" x1="33.3%" y1="0%" x2="100%" y2="100%"><stop offset="20%" stop-color="#09efe8" stop-opacity="1"></stop><stop offset="80%" stop-color="#00beb8" stop-opacity="1"></stop></linearGradient></defs><defs><linearGradient id="grad1_2" x1="33.3%" y1="0%" x2="100%" y2="100%"><stop offset="20%" stop-color="#008f8b" stop-opacity="1"></stop><stop offset="80%" stop-color="#00beb8" stop-opacity="1"></stop></linearGradient></defs><defs><linearGradient id="grad1_3" x1="33.3%" y1="0%" x2="100%" y2="100%"><stop offset="20%" stop-color="#008f8b" stop-opacity="1"></stop><stop offset="80%" stop-color="#006260" stop-opacity="1"></stop></linearGradient></defs><defs><linearGradient id="grad1_4" x1="33.3%" y1="0%" x2="100%" y2="100%"><stop offset="20%" stop-color="#003838" stop-opacity="1"></stop><stop offset="80%" stop-color="#006260" stop-opacity="1"></stop></linearGradient></defs><defs><linearGradient id="grad1_5" x1="33.3%" y1="0%" x2="100%" y2="100%"><stop offset="20%" stop-color="#003838" stop-opacity="1"></stop><stop offset="80%" stop-color="#000000" stop-opacity="1"></stop></linearGradient></defs><defs><linearGradient id="grad2_0" x1="0%" y1="0%" x2="66.7%" y2="100%"><stop offset="20%" stop-color="#09efe8" stop-opacity="1"></stop><stop offset="80%" stop-color="#09efe8" stop-opacity="1"></stop></linearGradient></defs><defs><linearGradient id="grad2_1" x1="0%" y1="0%" x2="66.7%" y2="100%"><stop offset="20%" stop-color="#00beb8" stop-opacity="1"></stop><stop offset="80%" stop-color="#09efe8" stop-opacity="1"></stop></linearGradient></defs><defs><linearGradient id="grad2_2" x1="0%" y1="0%" x2="66.7%" y2="100%"><stop offset="20%" stop-color="#00beb8" stop-opacity="1"></stop><stop offset="80%" stop-color="#008f8b" stop-opacity="1"></stop></linearGradient></defs><defs><linearGradient id="grad2_3" x1="0%" y1="0%" x2="66.7%" y2="100%"><stop offset="20%" stop-color="#006260" stop-opacity="1"></stop><stop offset="80%" stop-color="#008f8b" stop-opacity="1"></stop></linearGradient></defs><defs><linearGradient id="grad2_4" x1="0%" y1="0%" x2="66.7%" y2="100%"><stop offset="20%" stop-color="#006260" stop-opacity="1"></stop><stop offset="80%" stop-color="#003838" stop-opacity="1"></stop></linearGradient></defs><defs><linearGradient id="grad2_5" x1="0%" y1="0%" x2="66.7%" y2="100%"><stop offset="20%" stop-color="#000000" stop-opacity="1"></stop><stop offset="80%" stop-color="#003838" stop-opacity="1"></stop></linearGradient></defs><g transform="translate(900, 0)"><path d="M0 324.5C-41.9 318.4 -83.9 312.2 -123.2 297.5C-162.6 282.8 -199.4 259.5 -229.5 229.5C-259.5 199.4 -282.8 162.6 -297.5 123.2C-312.2 83.9 -318.4 41.9 -324.5 0L0 0Z" fill="#002825"></path><path d="M0 270.4C-34.9 265.3 -69.9 260.2 -102.7 247.9C-135.5 235.6 -166.2 216.3 -191.2 191.2C-216.3 166.2 -235.6 135.5 -247.9 102.7C-260.2 69.9 -265.3 34.9 -270.4 0L0 0Z" fill="#004d4b"></path><path d="M0 216.3C-28 212.2 -55.9 208.1 -82.1 198.3C-108.4 188.5 -132.9 173 -153 153C-173 132.9 -188.5 108.4 -198.3 82.1C-208.1 55.9 -212.2 28 -216.3 0L0 0Z" fill="#007875"></path><path d="M0 162.2C-21 159.2 -41.9 156.1 -61.6 148.7C-81.3 141.4 -99.7 129.8 -114.7 114.7C-129.8 99.7 -141.4 81.3 -148.7 61.6C-156.1 41.9 -159.2 21 -162.2 0L0 0Z" fill="#00a6a1"></path><path d="M0 108.2C-14 106.1 -28 104.1 -41.1 99.2C-54.2 94.3 -66.5 86.5 -76.5 76.5C-86.5 66.5 -94.3 54.2 -99.2 41.1C-104.1 28 -106.1 14 -108.2 0L0 0Z" fill="#00d6d0"></path><path d="M0 54.1C-7 53.1 -14 52 -20.5 49.6C-27.1 47.1 -33.2 43.3 -38.2 38.2C-43.3 33.2 -47.1 27.1 -49.6 20.5C-52 14 -53.1 7 -54.1 0L0 0Z" fill="#09efe8"></path></g><g transform="translate(0, 600)"><path d="M0 -324.5C40.5 -315.3 81 -306.1 120.9 -291.9C160.9 -277.8 200.2 -258.7 229.5 -229.5C258.7 -200.2 277.8 -160.9 291.9 -120.9C306.1 -81 315.3 -40.5 324.5 0L0 0Z" fill="#002825"></path><path d="M0 -270.4C33.7 -262.7 67.5 -255.1 100.8 -243.3C134 -231.5 166.9 -215.6 191.2 -191.2C215.6 -166.9 231.5 -134 243.3 -100.8C255.1 -67.5 262.7 -33.7 270.4 0L0 0Z" fill="#004d4b"></path><path d="M0 -216.3C27 -210.2 54 -204.1 80.6 -194.6C107.2 -185.2 133.5 -172.5 153 -153C172.5 -133.5 185.2 -107.2 194.6 -80.6C204.1 -54 210.2 -27 216.3 0L0 0Z" fill="#007875"></path><path d="M0 -162.2C20.2 -157.6 40.5 -153 60.5 -146C80.4 -138.9 100.1 -129.3 114.7 -114.7C129.3 -100.1 138.9 -80.4 146 -60.5C153 -40.5 157.6 -20.2 162.2 0L0 0Z" fill="#00a6a1"></path><path d="M0 -108.2C13.5 -105.1 27 -102 40.3 -97.3C53.6 -92.6 66.7 -86.2 76.5 -76.5C86.2 -66.7 92.6 -53.6 97.3 -40.3C102 -27 105.1 -13.5 108.2 0L0 0Z" fill="#00d6d0"></path><path d="M0 -54.1C6.7 -52.5 13.5 -51 20.2 -48.7C26.8 -46.3 33.4 -43.1 38.2 -38.2C43.1 -33.4 46.3 -26.8 48.7 -20.2C51 -13.5 52.5 -6.7 54.1 0L0 0Z" fill="#09efe8"></path></g></svg>